<svg xmlns="http://www.w3.org/2000/svg" width="76.428" height="60.486" viewBox="0 0 76.428 60.486">
  <g id="_" data-name="&quot;" opacity="0.15">
    <path id="Path_1096" data-name="Path 1096" d="M17.533,0a17.509,17.509,0,1,0,14.3,27.579A30.265,30.265,0,0,1,1.616,57.3a1.592,1.592,0,1,0,0,3.184A33.465,33.465,0,0,0,35.042,27.06v-9.55A17.528,17.528,0,0,0,17.533,0Z" transform="translate(35.042 60.486) rotate(180)" fill="#e0474e"/>
    <path id="Path_1097" data-name="Path 1097" d="M17.533,0a17.509,17.509,0,1,0,14.3,27.579A30.265,30.265,0,0,1,1.616,57.3a1.592,1.592,0,0,0,0,3.184A33.465,33.465,0,0,0,35.042,27.06v-9.55A17.528,17.528,0,0,0,17.533,0Z" transform="translate(76.428 60.486) rotate(180)" fill="#e0474e"/>
  </g>
</svg>
